<mxfile host="app.diagrams.net" modified="2023-11-08T15:48:59.118Z" agent="Mozilla/5.0 (X11; Linux x86_64) AppleWebKit/537.36 (KHTML, like Gecko) Chrome/119.0.0.0 Safari/537.36" etag="llCfvHCOj4HMGBod6bS5" version="22.0.8" type="github">
  <diagram name="PÃ¡gina-1" id="fN_BX1Q7iqfhWap0hX38">
    <mxGraphModel dx="1432" dy="669" grid="1" gridSize="10" guides="1" tooltips="1" connect="1" arrows="1" fold="1" page="1" pageScale="1" pageWidth="827" pageHeight="1169" math="0" shadow="0">
      <root>
        <mxCell id="0" />
        <mxCell id="1" parent="0" />
        <mxCell id="Te2KGw7d16V4PrrXAq18-1" value="Cajero" style="shape=umlActor;verticalLabelPosition=bottom;verticalAlign=top;html=1;outlineConnect=0;" vertex="1" parent="1">
          <mxGeometry x="1050" y="160" width="30" height="60" as="geometry" />
        </mxCell>
        <mxCell id="Te2KGw7d16V4PrrXAq18-12" style="rounded=0;orthogonalLoop=1;jettySize=auto;html=1;entryX=0;entryY=0.5;entryDx=0;entryDy=0;endArrow=none;endFill=0;elbow=vertical;" edge="1" parent="1" source="Te2KGw7d16V4PrrXAq18-2" target="Te2KGw7d16V4PrrXAq18-10">
          <mxGeometry relative="1" as="geometry" />
        </mxCell>
        <mxCell id="Te2KGw7d16V4PrrXAq18-2" value="Cliente" style="shape=umlActor;verticalLabelPosition=bottom;verticalAlign=top;html=1;outlineConnect=0;" vertex="1" parent="1">
          <mxGeometry x="160" y="160" width="30" height="60" as="geometry" />
        </mxCell>
        <mxCell id="Te2KGw7d16V4PrrXAq18-9" style="edgeStyle=orthogonalEdgeStyle;rounded=0;orthogonalLoop=1;jettySize=auto;html=1;" edge="1" parent="1" source="Te2KGw7d16V4PrrXAq18-5" target="Te2KGw7d16V4PrrXAq18-1">
          <mxGeometry relative="1" as="geometry" />
        </mxCell>
        <mxCell id="Te2KGw7d16V4PrrXAq18-5" value="Director" style="shape=umlActor;verticalLabelPosition=bottom;verticalAlign=top;html=1;outlineConnect=0;" vertex="1" parent="1">
          <mxGeometry x="1050" y="400" width="30" height="60" as="geometry" />
        </mxCell>
        <mxCell id="Te2KGw7d16V4PrrXAq18-10" value="Depositar" style="ellipse;whiteSpace=wrap;html=1;fillColor=#dae8fc;strokeColor=#6c8ebf;" vertex="1" parent="1">
          <mxGeometry x="350" y="165" width="116" height="50" as="geometry" />
        </mxCell>
        <mxCell id="Te2KGw7d16V4PrrXAq18-13" value="Autenticar" style="ellipse;whiteSpace=wrap;html=1;fillColor=#dae8fc;strokeColor=#6c8ebf;" vertex="1" parent="1">
          <mxGeometry x="760" y="160" width="116" height="50" as="geometry" />
        </mxCell>
      </root>
    </mxGraphModel>
  </diagram>
</mxfile>
